# 3ds Max Wavefront OBJ Exporter v0.97b - (c)2007 guruware
# File Created: 24.12.2019 19:43:11

mtllib lego 1.mtl

#
# object Box003
#

v  17.9114 -53.7465 1.5210
v  12.6589 -53.7465 -33.0225
v  12.6589 -53.7465 1.5210
v  26.2621 -4.4772 -33.0225
v  17.9114 -47.1610 -33.0225
v  17.9114 -41.8837 -33.0225
v  17.9114 -67.1077 1.5210
v  17.9114 -71.8975 -33.0225
v  17.9114 -71.8975 1.5210
v  17.9114 -47.1610 1.5210
v  17.9114 -7.4905 0.9458
v  17.9114 -41.8837 0.9458
v  -24.2208 -7.4905 0.9458
v  -24.2208 -51.2081 -33.0225
v  -24.2208 -7.4905 -33.0225
v  -21.0570 -79.9054 15.3974
v  -23.4502 -93.3604 15.3974
v  -21.0570 -99.8788 15.3974
v  -3.6080 -69.9188 15.3974
v  -10.4991 -71.1233 5.8755
v  -10.4991 -71.1233 15.3974
v  -16.5591 -45.5347 15.3974
v  -21.0570 -40.2209 5.8755
v  -16.5591 -45.5347 5.8755
v  -23.4502 -26.7659 15.3974
v  -23.4502 -33.7026 5.8755
v  -23.4502 -33.7026 15.3974
v  -23.4502 -86.4238 5.8755
v  -23.4502 -86.4238 15.3974
v  -21.0570 -79.9054 5.8755
v  9.3431 -74.5916 5.8755
v  16.2343 -33.7026 5.8755
v  13.8410 -40.2209 5.8755
v  -10.4991 -11.4654 15.3974
v  -16.5591 -14.9338 5.8755
v  -16.5591 -14.9338 15.3974
v  26.2621 -4.4772 -29.5751
v  26.2621 -0.1018 -33.0225
v  26.2621 -0.1018 5.8755
v  26.2621 -119.3048 -33.0225
v  26.2621 -118.8822 -32.6921
v  26.2621 -119.3048 5.8755
v  3.2832 -108.6609 15.3974
v  -3.6080 -109.8654 5.8755
v  3.2832 -108.6609 5.8755
v  9.3431 -105.1926 5.8755
v  16.2343 -86.4238 15.3974
v  13.8410 -79.9054 5.8755
v  13.8410 -79.9054 15.3974
v  13.8410 -20.2476 15.3974
v  16.2343 -26.7659 5.8755
v  13.8410 -20.2476 5.8755
v  13.8410 -40.2209 15.3974
v  16.2343 -33.7026 15.3974
v  9.3431 -45.5347 15.3974
v  9.3431 -74.5916 15.3974
v  3.2832 -71.1233 5.8755
v  3.2832 -71.1233 15.3974
v  9.3431 -14.9338 5.8755
v  3.2832 -11.4655 15.3974
v  9.3431 -14.9338 15.3974
v  -3.6080 -10.2609 5.8755
v  3.2832 -11.4655 5.8755
v  -21.0570 -20.2476 15.3974
v  -21.0570 -40.2209 15.3974
v  -3.6080 -50.2076 15.3974
v  3.2832 -49.0030 5.8755
v  3.2832 -49.0030 15.3974
v  9.3431 -45.5347 5.8755
v  16.2343 -26.7659 15.3974
v  16.2343 -93.3604 15.3974
v  16.2343 -86.4238 5.8755
v  13.8410 -99.8788 15.3974
v  9.3431 -105.1926 15.3974
v  16.2343 -93.3604 5.8755
v  -32.2918 -0.1018 5.8755
v  -10.4991 -11.4654 5.8755
v  -3.6080 -10.2609 15.3974
v  -21.0570 -20.2476 5.8755
v  -23.4502 -26.7659 5.8755
v  -10.4991 -49.0030 15.3974
v  -10.4991 -49.0030 5.8755
v  -3.6080 -50.2076 5.8755
v  -3.6080 -69.9188 5.8755
v  -10.4991 -108.6609 15.3974
v  -3.6080 -109.8654 15.3974
v  -16.5591 -74.5916 5.8755
v  -16.5591 -74.5916 15.3974
v  -21.0570 -99.8788 5.8755
v  -16.5591 -105.1926 5.8755
v  -16.5591 -105.1926 15.3974
v  -32.2918 -119.3048 -33.0225
v  -32.2918 -119.3048 5.8755
v  -32.2918 -0.1018 -33.0225
v  -24.2208 -111.2769 0.9458
v  -24.2208 -68.9052 -33.0225
v  -24.2208 -68.9052 0.9458
v  17.6690 -7.4905 -33.0225
v  17.9114 -7.4905 -33.0225
v  17.6690 -7.4905 0.9458
v  17.6690 -47.2614 -33.0225
v  17.6690 -41.9841 0.9458
v  17.6690 -53.5300 1.5210
v  -23.9602 -51.2081 0.9458
v  -23.9602 -7.4905 0.9458
v  -24.2208 -51.2081 0.9458
v  -23.9602 -51.2081 -33.0225
v  12.7486 -53.5300 1.5210
v  -23.9602 -53.5300 -33.0225
v  -23.9602 -53.5300 2.4067
v  17.6690 -6.9223 -33.0225
v  -23.9602 -6.9223 2.4067
v  -23.9602 -6.9223 -33.0225
v  17.6690 -47.2614 1.5210
v  17.6690 -53.5300 2.4067
v  17.6690 -67.1077 1.5210
v  17.9114 -67.1077 -33.0225
v  17.6690 -71.7971 1.5210
v  17.6690 -71.7971 -33.0225
v  -23.9602 -111.2769 0.9458
v  -24.2208 -111.2769 -33.0225
v  -23.9602 -68.9052 0.9458
v  -23.9602 -68.9052 -33.0225
v  17.6690 -111.9483 -33.0225
v  17.6690 -111.9483 2.4067
v  -23.9602 -111.9483 -33.0225
v  -23.9602 -111.9483 2.4067
v  -23.9602 -67.0714 -33.0225
v  -23.9602 -67.0714 2.4067
v  17.6690 -67.0714 2.4067
v  17.6690 -67.0714 -33.0225
v  17.9114 -53.7465 -33.0225
v  26.2621 -118.8822 -33.0225
v  17.6690 -41.9841 -33.0225
v  12.7486 -53.5300 -33.0225
v  17.6690 -67.1077 -33.0225
v  -23.9602 -7.4905 -33.0225
v  -23.9602 -111.2769 -33.0225
v  -23.4502 -93.3604 5.8755
v  -10.4991 -108.6609 5.8755
v  13.8410 -99.8788 5.8755
v  17.6690 -6.9223 2.4067
# 142 vertices

vn 0.0000 1.0000 -0.0000
vn 0.0000 0.0000 -1.0000
vn -1.0000 0.0000 -0.0000
vn 1.0000 0.0000 -0.0000
vn 0.0000 0.0000 1.0000
vn -0.0000 1.0000 -0.0000
vn -0.2842 0.9588 -0.0000
vn -0.3938 0.9192 -0.0000
vn -0.6836 -0.7298 -0.0000
vn -0.8642 -0.5031 -0.0000
vn -0.5936 -0.8048 -0.0000
vn -0.9932 0.1165 -0.0000
vn -0.9932 -0.1165 -0.0000
vn -0.9725 -0.2330 -0.0000
vn -0.9846 -0.1750 -0.0000
vn -0.9725 0.2330 -0.0000
vn -0.8924 0.4513 -0.0000
vn -0.5936 0.8048 -0.0000
vn -0.6836 0.7298 -0.0000
vn 1.0000 -0.0000 -0.0000
vn 0.3395 -0.9406 -0.0000
vn 0.0000 -1.0000 -0.0000
vn 0.6397 -0.7686 -0.0000
vn 0.9725 0.2330 -0.0000
vn 0.8642 0.5031 -0.0000
vn 0.8924 -0.4513 -0.0000
vn 0.9846 -0.1750 -0.0000
vn 0.6836 -0.7298 -0.0000
vn 0.8331 -0.5531 -0.0000
vn 0.6397 0.7686 -0.0000
vn 0.3396 0.9406 -0.0000
vn 0.0582 0.9983 -0.0000
vn -0.0000 -1.0000 -0.0000
vn 0.2842 -0.9588 -0.0000
vn 0.3938 -0.9192 -0.0000
vn 0.5936 -0.8048 -0.0000
vn 0.9932 0.1165 -0.0000
vn 0.9932 -0.1165 -0.0000
vn 0.8642 -0.5031 -0.0000
vn 0.9725 -0.2330 -0.0000
vn -0.0582 0.9983 -0.0000
vn -0.8331 0.5531 -0.0000
vn -0.3938 -0.9192 -0.0000
vn -0.2842 -0.9588 -0.0000
vn -0.3395 -0.9406 -0.0000
vn -0.6397 0.7686 -0.0000
vn -0.8924 -0.4513 -0.0000
vn -0.8331 -0.5531 -0.0000
vn -0.6397 -0.7686 -0.0000
vn 0.3827 -0.9239 -0.0000
vn -0.3827 0.9239 -0.0000
vn 0.9239 -0.3827 -0.0000
vn 0.3827 0.9239 -0.0000
# 53 vertex normals

vt 0.1594 0.4443 0.0000
vt 0.0218 0.4652 0.0000
vt 0.1594 0.4652 0.0000
vt 0.0050 0.9776 0.0000
vt 0.0383 0.8075 0.0000
vt 0.0383 0.8285 0.0000
vt 0.2089 0.4967 0.0000
vt 0.2280 0.3591 0.0000
vt 0.2280 0.4967 0.0000
vt 0.2363 0.3591 0.0000
vt 0.2625 0.4967 0.0000
vt 0.2363 0.4967 0.0000
vt 0.1543 0.1708 0.0000
vt 0.2913 0.0355 0.0000
vt 0.2913 0.1708 0.0000
vt 0.4735 0.0355 0.0000
vt 0.2993 0.1708 0.0000
vt 0.4735 0.1708 0.0000
vt 0.8345 0.8651 0.0000
vt 0.8249 0.9187 0.0000
vt 0.8345 0.9447 0.0000
vt 0.3078 0.4451 0.0000
vt 0.2699 0.4726 0.0000
vt 0.3078 0.4726 0.0000
vt 0.6105 0.5598 0.0000
vt 0.5893 0.5219 0.0000
vt 0.6105 0.5219 0.0000
vt 0.5357 0.5598 0.0000
vt 0.5633 0.5219 0.0000
vt 0.5633 0.5598 0.0000
vt 0.0690 0.4735 0.0000
vt 0.0966 0.5114 0.0000
vt 0.0690 0.5114 0.0000
vt 0.0430 0.4735 0.0000
vt 0.4127 0.8169 0.0000
vt 0.4401 0.6540 0.0000
vt 0.4306 0.6799 0.0000
vt 0.4067 0.9057 0.0000
vt 0.3687 0.9298 0.0000
vt 0.4067 0.9298 0.0000
vt 0.4625 0.3211 0.0000
vt 0.4799 0.3348 0.0000
vt 0.4799 0.1799 0.0000
vt 0.0050 0.3348 0.0000
vt 0.0067 0.3335 0.0000
vt 0.0050 0.1799 0.0000
vt 0.4625 0.3348 0.0000
vt 0.3267 0.6765 0.0000
vt 0.3646 0.6491 0.0000
vt 0.3646 0.6765 0.0000
vt 0.3646 0.7007 0.0000
vt 0.1449 0.6102 0.0000
vt 0.1709 0.6481 0.0000
vt 0.1709 0.6102 0.0000
vt 0.1562 0.5639 0.0000
vt 0.1302 0.6018 0.0000
vt 0.1562 0.6018 0.0000
vt 0.0766 0.5639 0.0000
vt 0.1026 0.6018 0.0000
vt 0.1026 0.5639 0.0000
vt 0.0555 0.5639 0.0000
vt 0.0766 0.6018 0.0000
vt 0.3078 0.3935 0.0000
vt 0.2699 0.4177 0.0000
vt 0.3078 0.4177 0.0000
vt 0.3687 0.8266 0.0000
vt 0.4067 0.8508 0.0000
vt 0.4067 0.8266 0.0000
vt 0.3687 0.8782 0.0000
vt 0.3687 0.8508 0.0000
vt 0.6852 0.0662 0.0000
vt 0.6757 0.1198 0.0000
vt 0.6852 0.1458 0.0000
vt 0.3141 0.8782 0.0000
vt 0.3520 0.9057 0.0000
vt 0.3141 0.9057 0.0000
vt 0.3520 0.9298 0.0000
vt 0.1774 0.6018 0.0000
vt 0.1774 0.5639 0.0000
vt 0.1302 0.5639 0.0000
vt 0.1173 0.6102 0.0000
vt 0.1449 0.6481 0.0000
vt 0.1921 0.6102 0.0000
vt 0.0702 0.6481 0.0000
vt 0.0913 0.6102 0.0000
vt 0.0702 0.6102 0.0000
vt 0.1173 0.6481 0.0000
vt 0.6525 0.7617 0.0000
vt 0.8075 0.9950 0.0000
vt 0.8075 0.7617 0.0000
vt 0.3687 0.9057 0.0000
vt 0.4067 0.8782 0.0000
vt 0.4886 0.5598 0.0000
vt 0.5097 0.5219 0.0000
vt 0.5097 0.5598 0.0000
vt 0.5357 0.5219 0.0000
vt 0.5893 0.5598 0.0000
vt 0.3141 0.8508 0.0000
vt 0.3520 0.8266 0.0000
vt 0.3520 0.8508 0.0000
vt 0.3520 0.8782 0.0000
vt 0.2699 0.4451 0.0000
vt 0.3267 0.6216 0.0000
vt 0.3267 0.6491 0.0000
vt 0.2699 0.4967 0.0000
vt 0.3078 0.4967 0.0000
vt 0.0218 0.4735 0.0000
vt 0.0430 0.5114 0.0000
vt 0.0218 0.5114 0.0000
vt 0.1226 0.4735 0.0000
vt 0.1226 0.5114 0.0000
vt 0.1437 0.4735 0.0000
vt 0.3646 0.5975 0.0000
vt 0.3267 0.5975 0.0000
vt 0.6435 0.7617 0.0000
vt 0.4886 0.9950 0.0000
vt 0.4886 0.7617 0.0000
vt 0.8415 0.4988 0.0000
vt 0.3666 0.3439 0.0000
vt 0.8415 0.3439 0.0000
vt 0.4886 0.1995 0.0000
vt 0.6574 0.3348 0.0000
vt 0.6574 0.1995 0.0000
vt 0.0597 0.7196 0.0000
vt 0.1950 0.7186 0.0000
vt 0.1950 0.7196 0.0000
vt 0.0470 0.5826 0.0000
vt 0.0480 0.7196 0.0000
vt 0.0470 0.7196 0.0000
vt 0.0555 0.6986 0.0000
vt 0.1931 0.6976 0.0000
vt 0.1931 0.6986 0.0000
vt 0.0555 0.6871 0.0000
vt 0.1908 0.6880 0.0000
vt 0.1908 0.6871 0.0000
vt 0.2982 0.6437 0.0000
vt 0.2972 0.6691 0.0000
vt 0.2972 0.6429 0.0000
vt 0.8165 0.8208 0.0000
vt 0.8176 0.9950 0.0000
vt 0.8165 0.9950 0.0000
vt 0.1908 0.7080 0.0000
vt 0.0555 0.7091 0.0000
vt 0.0555 0.7080 0.0000
vt 0.1908 0.6775 0.0000
vt 0.0555 0.6765 0.0000
vt 0.0555 0.6775 0.0000
vt 0.3603 0.9466 0.0000
vt 0.3612 0.8090 0.0000
vt 0.3603 0.8090 0.0000
vt 0.8007 0.6070 0.0000
vt 0.6631 0.7532 0.0000
vt 0.8042 0.7532 0.0000
vt 0.0143 0.3761 0.0000
vt 0.0050 0.5114 0.0000
vt 0.0143 0.5114 0.0000
vt 0.1882 0.9593 0.0000
vt 0.0470 0.7934 0.0000
vt 0.1882 0.7934 0.0000
vt 0.3381 0.5056 0.0000
vt 0.3591 0.3703 0.0000
vt 0.3591 0.5079 0.0000
vt 0.6544 0.7532 0.0000
vt 0.4886 0.5675 0.0000
vt 0.6544 0.5675 0.0000
vt 0.0555 0.6661 0.0000
vt 0.1931 0.6670 0.0000
vt 0.0555 0.6670 0.0000
vt 0.1931 0.6565 0.0000
vt 0.0555 0.6555 0.0000
vt 0.0555 0.6565 0.0000
vt 0.2919 0.8712 0.0000
vt 0.2909 0.8899 0.0000
vt 0.2909 0.8708 0.0000
vt 0.1571 0.4347 0.0000
vt 0.0218 0.4358 0.0000
vt 0.1571 0.4358 0.0000
vt 0.8502 0.5661 0.0000
vt 0.8512 0.3973 0.0000
vt 0.8512 0.5661 0.0000
vt 0.3918 0.5114 0.0000
vt 0.5272 0.5104 0.0000
vt 0.5272 0.5114 0.0000
vt 0.6840 0.3313 0.0000
vt 0.8439 0.1937 0.0000
vt 0.8439 0.3348 0.0000
vt 0.1461 0.0050 0.0000
vt 0.0050 0.1708 0.0000
vt 0.1461 0.1708 0.0000
vt 0.6600 0.0502 0.0000
vt 0.6673 0.1856 0.0000
vt 0.6673 0.0444 0.0000
vt 0.8123 0.5744 0.0000
vt 0.9782 0.7532 0.0000
vt 0.8123 0.7532 0.0000
vt 0.8418 0.0197 0.0000
vt 0.9829 0.1856 0.0000
vt 0.8418 0.1856 0.0000
vt 0.0218 0.4443 0.0000
vt 0.0392 0.5494 0.0000
vt 0.0050 0.5218 0.0000
vt 0.0392 0.8281 0.0000
vt 0.0392 0.8071 0.0000
vt 0.0592 0.7813 0.0000
vt 0.2051 0.7821 0.0000
vt 0.0588 0.7821 0.0000
vt 0.0383 0.7090 0.0000
vt 0.0392 0.7094 0.0000
vt 0.0383 0.7281 0.0000
vt 0.0392 0.9678 0.0000
vt 0.0383 0.9656 0.0000
vt 0.0392 0.9656 0.0000
vt 0.2383 0.5201 0.0000
vt 0.0050 0.5201 0.0000
vt 0.2051 0.5494 0.0000
vt 0.2383 0.9950 0.0000
vt 0.0050 0.9950 0.0000
vt 0.0392 0.7282 0.0000
vt 0.0392 0.7281 0.0000
vt 0.2061 0.9656 0.0000
vt 0.2051 0.9678 0.0000
vt 0.2051 0.9656 0.0000
vt 0.2061 0.5521 0.0000
vt 0.2051 0.5521 0.0000
vt 0.2061 0.7209 0.0000
vt 0.2051 0.7282 0.0000
vt 0.2051 0.7209 0.0000
vt 0.2061 0.7914 0.0000
vt 0.2051 0.7914 0.0000
vt 0.0383 0.7813 0.0000
vt 0.2089 0.3591 0.0000
vt 0.2625 0.3591 0.0000
vt 0.1543 0.0355 0.0000
vt 0.2993 0.0355 0.0000
vt 0.9830 0.8911 0.0000
vt 0.9735 0.9447 0.0000
vt 0.9830 0.9187 0.0000
vt 0.9735 0.8651 0.0000
vt 0.9556 0.8440 0.0000
vt 0.9556 0.9659 0.0000
vt 0.9315 0.9797 0.0000
vt 0.9315 0.8301 0.0000
vt 0.9040 0.8253 0.0000
vt 0.9040 0.9845 0.0000
vt 0.8765 0.8301 0.0000
vt 0.8765 0.9797 0.0000
vt 0.8524 0.8440 0.0000
vt 0.8524 0.9659 0.0000
vt 0.8249 0.8911 0.0000
vt 0.0966 0.4735 0.0000
vt 0.2915 0.9176 0.0000
vt 0.2468 0.9950 0.0000
vt 0.3095 0.9388 0.0000
vt 0.3611 0.7982 0.0000
vt 0.3885 0.7149 0.0000
vt 0.3611 0.7197 0.0000
vt 0.3885 0.8030 0.0000
vt 0.3336 0.7149 0.0000
vt 0.3336 0.8030 0.0000
vt 0.3336 0.9526 0.0000
vt 0.4801 0.9950 0.0000
vt 0.3611 0.9574 0.0000
vt 0.3885 0.9526 0.0000
vt 0.4127 0.9388 0.0000
vt 0.4306 0.9176 0.0000
vt 0.4127 0.7011 0.0000
vt 0.3095 0.8169 0.0000
vt 0.3095 0.7011 0.0000
vt 0.4401 0.8916 0.0000
vt 0.4801 0.5201 0.0000
vt 0.4401 0.8640 0.0000
vt 0.4306 0.8380 0.0000
vt 0.2820 0.8916 0.0000
vt 0.2468 0.5201 0.0000
vt 0.2820 0.8640 0.0000
vt 0.2915 0.8380 0.0000
vt 0.2915 0.6799 0.0000
vt 0.2820 0.6540 0.0000
vt 0.2820 0.6263 0.0000
vt 0.2915 0.6004 0.0000
vt 0.3095 0.5792 0.0000
vt 0.3336 0.5654 0.0000
vt 0.3611 0.5606 0.0000
vt 0.3885 0.5654 0.0000
vt 0.4127 0.5792 0.0000
vt 0.4306 0.6004 0.0000
vt 0.4401 0.6263 0.0000
vt 0.0067 0.3348 0.0000
vt 0.3267 0.7007 0.0000
vt 0.0555 0.6018 0.0000
vt 0.2699 0.3935 0.0000
vt 0.8338 0.0922 0.0000
vt 0.8242 0.1458 0.0000
vt 0.8338 0.1198 0.0000
vt 0.8242 0.0662 0.0000
vt 0.8063 0.1669 0.0000
vt 0.8063 0.0450 0.0000
vt 0.7822 0.0312 0.0000
vt 0.7822 0.1808 0.0000
vt 0.7547 0.1856 0.0000
vt 0.7547 0.0264 0.0000
vt 0.7273 0.0312 0.0000
vt 0.7273 0.1808 0.0000
vt 0.7031 0.0450 0.0000
vt 0.7031 0.1669 0.0000
vt 0.6757 0.0922 0.0000
vt 0.3141 0.9298 0.0000
vt 0.1921 0.6481 0.0000
vt 0.0913 0.6481 0.0000
vt 0.6525 0.9950 0.0000
vt 0.4886 0.5219 0.0000
vt 0.3141 0.8266 0.0000
vt 0.3646 0.6216 0.0000
vt 0.1437 0.5114 0.0000
vt 0.6435 0.9950 0.0000
vt 0.3666 0.4988 0.0000
vt 0.4886 0.3348 0.0000
vt 0.0597 0.7186 0.0000
vt 0.0480 0.5822 0.0000
vt 0.0555 0.6976 0.0000
vt 0.0555 0.6880 0.0000
vt 0.3178 0.6437 0.0000
vt 0.3182 0.6429 0.0000
vt 0.2982 0.6687 0.0000
vt 0.8176 0.8208 0.0000
vt 0.1908 0.7091 0.0000
vt 0.1908 0.6765 0.0000
vt 0.3612 0.9466 0.0000
vt 0.8042 0.5874 0.0000
vt 0.8007 0.5874 0.0000
vt 0.6631 0.6070 0.0000
vt 0.1907 0.5114 0.0000
vt 0.1884 0.3761 0.0000
vt 0.1884 0.5114 0.0000
vt 0.1907 0.3703 0.0000
vt 0.0050 0.3703 0.0000
vt 0.0470 0.9593 0.0000
vt 0.1984 0.5114 0.0000
vt 0.3841 0.5079 0.0000
vt 0.3841 0.5114 0.0000
vt 0.2007 0.5056 0.0000
vt 0.1984 0.3703 0.0000
vt 0.2007 0.3703 0.0000
vt 0.3381 0.3703 0.0000
vt 0.4886 0.7532 0.0000
vt 0.1931 0.6661 0.0000
vt 0.1931 0.6555 0.0000
vt 0.2919 0.8899 0.0000
vt 0.0218 0.4347 0.0000
vt 0.8502 0.3973 0.0000
vt 0.3918 0.5104 0.0000
vt 0.6653 0.3313 0.0000
vt 0.6652 0.1937 0.0000
vt 0.6653 0.1937 0.0000
vt 0.6652 0.3348 0.0000
vt 0.6840 0.1937 0.0000
vt 0.0050 0.0050 0.0000
vt 0.4912 0.0502 0.0000
vt 0.4886 0.1856 0.0000
vt 0.4912 0.1856 0.0000
vt 0.4886 0.0444 0.0000
vt 0.6600 0.1856 0.0000
vt 0.9782 0.5744 0.0000
vt 0.9829 0.0197 0.0000
# 364 texture coords

o Box003
g Box003
usemtl Material__33
s off
f 1/1/1 2/2/1 3/3/1 
f 4/4/2 5/5/2 6/6/2 
f 7/7/3 8/8/3 9/9/3 
f 5/10/3 1/11/3 10/12/3 
f 11/13/3 6/14/3 12/15/3 
f 13/16/4 14/17/4 15/18/4 
f 16/19/5 17/20/5 18/21/5 
f 19/22/6 20/23/7 21/24/8 
f 22/25/9 23/26/10 24/27/11 
f 25/28/12 26/29/13 27/30/14 
f 28/31/12 17/32/15 29/33/16 
f 29/33/16 30/34/17 28/31/12 
f 31/35/5 32/36/5 33/37/5 
f 34/38/8 35/39/18 36/40/19 
f 37/41/20 38/42/20 39/43/20 
f 40/44/4 41/45/4 42/46/4 
f 41/45/4 4/47/20 37/41/20 
f 43/48/21 44/49/22 45/50/21 
f 46/51/23 43/48/21 45/50/21 
f 47/52/24 48/53/25 49/54/25 
f 50/55/25 51/56/24 52/57/25 
f 53/58/26 32/59/27 54/60/27 
f 55/61/28 33/62/29 53/58/26 
f 56/63/30 57/64/31 58/65/31 
f 59/66/30 60/67/31 61/68/30 
f 62/69/32 60/67/31 63/70/31 
f 64/71/5 27/72/5 65/73/5 
f 66/74/33 67/75/34 68/76/35 
f 69/77/36 68/76/35 67/75/34 
f 50/55/25 59/78/30 61/79/30 
f 70/80/37 32/59/27 51/56/24 
f 71/81/38 72/82/37 47/52/24 
f 48/53/25 56/83/30 49/54/25 
f 46/84/23 73/85/39 74/86/23 
f 73/85/39 75/87/40 71/81/38 
f 38/88/1 76/89/1 39/90/1 
f 77/91/7 78/92/41 62/69/32 
f 36/93/19 79/94/42 64/95/17 
f 80/96/16 64/95/17 79/94/42 
f 27/30/14 23/26/10 65/97/10 
f 81/98/43 24/99/11 82/100/44 
f 66/74/33 82/100/44 83/101/33 
f 19/22/6 57/64/31 84/102/6 
f 85/103/45 44/49/22 86/104/22 
f 21/24/8 87/105/46 88/106/46 
f 87/107/46 16/108/42 88/109/46 
f 17/32/15 89/110/47 18/111/48 
f 90/112/49 18/111/48 89/110/47 
f 90/113/49 85/103/45 91/114/49 
f 92/115/22 42/116/22 93/117/22 
f 93/118/3 94/119/3 92/120/3 
f 95/121/4 96/122/4 97/123/4 
f 11/124/22 98/125/22 99/126/22 
f 12/127/2 100/128/2 11/129/2 
f 10/130/50 101/131/50 5/132/50 
f 6/133/51 102/134/51 12/135/51 
f 103/136/2 10/137/2 1/138/2 
f 104/139/2 13/140/2 105/141/2 
f 15/142/22 105/143/22 13/144/22 
f 106/145/1 107/146/1 14/147/1 
f 2/148/52 108/149/52 3/150/52 
f 108/151/1 109/152/1 110/153/1 
f 104/154/4 109/155/4 107/156/4 
f 111/157/22 112/158/22 113/159/22 
f 102/160/3 101/161/3 114/162/3 
f 112/163/2 115/164/2 110/165/2 
f 116/166/22 117/167/22 7/168/22 
f 118/169/53 8/170/53 119/171/53 
f 118/172/2 7/173/2 9/174/2 
f 120/175/1 121/176/1 95/177/1 
f 122/178/2 95/179/2 97/180/2 
f 122/181/22 96/182/22 123/183/22 
f 118/184/3 124/185/3 125/186/3 
f 125/187/1 126/188/1 127/189/1 
f 122/190/4 128/191/4 129/192/4 
f 125/193/2 129/194/2 130/195/2 
f 129/196/22 131/197/22 130/198/22 
f 2/2/1 1/1/1 132/199/1 
f 124/200/2 4/4/2 133/201/2 
f 134/202/2 5/5/2 101/203/2 
f 2/204/2 109/205/2 135/206/2 
f 8/207/2 124/200/2 119/208/2 
f 8/207/2 4/4/2 124/200/2 
f 117/209/2 4/4/2 8/207/2 
f 111/210/2 99/211/2 98/212/2 
f 92/213/2 133/201/2 40/214/2 
f 92/213/2 124/200/2 133/201/2 
f 92/213/2 126/215/2 124/200/2 
f 4/4/2 94/216/2 38/217/2 
f 131/218/2 117/209/2 136/219/2 
f 131/218/2 4/4/2 117/209/2 
f 15/220/2 113/221/2 137/222/2 
f 126/215/2 121/223/2 138/224/2 
f 96/225/2 128/226/2 123/227/2 
f 109/205/2 14/228/2 107/229/2 
f 111/210/2 4/4/2 99/211/2 
f 111/210/2 94/216/2 4/4/2 
f 113/221/2 94/216/2 111/210/2 
f 15/220/2 94/216/2 113/221/2 
f 15/220/2 92/213/2 94/216/2 
f 14/228/2 92/213/2 15/220/2 
f 109/205/2 92/213/2 14/228/2 
f 6/6/2 5/5/2 134/202/2 
f 4/4/2 6/6/2 99/211/2 
f 92/213/2 121/223/2 126/215/2 
f 92/213/2 96/225/2 121/223/2 
f 109/205/2 96/225/2 92/213/2 
f 109/205/2 128/226/2 96/225/2 
f 2/204/2 128/226/2 109/205/2 
f 2/204/2 131/218/2 128/226/2 
f 132/230/2 131/218/2 2/204/2 
f 132/230/2 4/4/2 131/218/2 
f 5/5/2 4/4/2 132/230/2 
f 8/8/3 7/7/3 117/231/3 
f 1/11/3 5/10/3 132/232/3 
f 6/14/3 11/13/3 99/233/3 
f 14/17/4 13/16/4 106/234/4 
f 47/235/5 73/236/5 71/237/5 
f 49/238/5 73/236/5 47/235/5 
f 56/239/5 73/236/5 49/238/5 
f 56/239/5 74/240/5 73/236/5 
f 56/239/5 43/241/5 74/240/5 
f 58/242/5 43/241/5 56/239/5 
f 19/243/5 43/241/5 58/242/5 
f 19/243/5 86/244/5 43/241/5 
f 21/245/5 86/244/5 19/243/5 
f 21/245/5 85/246/5 86/244/5 
f 88/247/5 85/246/5 21/245/5 
f 88/247/5 91/248/5 85/246/5 
f 88/247/5 18/21/5 91/248/5 
f 16/19/5 18/21/5 88/247/5 
f 17/20/5 16/19/5 29/249/5 
f 20/23/7 19/22/6 84/102/6 
f 23/26/10 22/25/9 65/97/10 
f 26/29/13 25/28/12 80/96/16 
f 17/32/15 28/31/12 139/250/15 
f 30/34/17 29/33/16 16/108/42 
f 89/251/5 93/252/5 90/253/5 
f 84/254/5 67/255/5 83/256/5 
f 57/257/5 67/255/5 84/254/5 
f 82/258/5 84/254/5 83/256/5 
f 82/258/5 20/259/5 84/254/5 
f 93/252/5 140/260/5 90/253/5 
f 42/261/5 140/260/5 93/252/5 
f 42/261/5 44/262/5 140/260/5 
f 42/261/5 45/263/5 44/262/5 
f 42/261/5 46/264/5 45/263/5 
f 42/261/5 141/265/5 46/264/5 
f 57/257/5 69/266/5 67/255/5 
f 31/35/5 69/266/5 57/257/5 
f 82/258/5 87/267/5 20/259/5 
f 24/268/5 87/267/5 82/258/5 
f 42/261/5 75/269/5 141/265/5 
f 39/270/5 75/269/5 42/261/5 
f 39/270/5 72/271/5 75/269/5 
f 39/270/5 48/272/5 72/271/5 
f 39/270/5 31/35/5 48/272/5 
f 139/273/5 93/252/5 89/251/5 
f 139/273/5 76/274/5 93/252/5 
f 28/275/5 76/274/5 139/273/5 
f 30/276/5 76/274/5 28/275/5 
f 87/267/5 76/274/5 30/276/5 
f 23/277/5 87/267/5 24/268/5 
f 31/35/5 33/37/5 69/266/5 
f 26/278/5 87/267/5 23/277/5 
f 26/278/5 76/274/5 87/267/5 
f 80/279/5 76/274/5 26/278/5 
f 79/280/5 76/274/5 80/279/5 
f 35/281/5 76/274/5 79/280/5 
f 77/282/5 76/274/5 35/281/5 
f 77/282/5 39/270/5 76/274/5 
f 62/283/5 39/270/5 77/282/5 
f 63/284/5 39/270/5 62/283/5 
f 59/285/5 39/270/5 63/284/5 
f 52/286/5 39/270/5 59/285/5 
f 51/287/5 39/270/5 52/286/5 
f 32/36/5 39/270/5 51/287/5 
f 32/36/5 31/35/5 39/270/5 
f 35/39/18 34/38/8 77/91/7 
f 38/42/20 37/41/20 4/47/20 
f 41/45/4 40/44/4 133/288/4 
f 42/46/4 37/41/20 39/43/20 
f 41/45/4 37/41/20 42/46/4 
f 4/47/20 41/45/4 133/288/4 
f 44/49/22 43/48/21 86/104/22 
f 43/48/21 46/51/23 74/289/23 
f 48/53/25 47/52/24 72/82/37 
f 51/56/24 50/55/25 70/80/37 
f 32/59/27 53/58/26 33/62/29 
f 33/62/29 55/61/28 69/290/36 
f 57/64/31 56/63/30 31/291/30 
f 60/67/31 59/66/30 63/70/31 
f 60/67/31 62/69/32 78/92/41 
f 70/292/5 53/293/5 54/294/5 
f 50/295/5 53/293/5 70/292/5 
f 50/295/5 55/296/5 53/293/5 
f 61/297/5 55/296/5 50/295/5 
f 60/298/5 55/296/5 61/297/5 
f 60/298/5 68/299/5 55/296/5 
f 60/298/5 66/300/5 68/299/5 
f 78/301/5 66/300/5 60/298/5 
f 34/302/5 66/300/5 78/301/5 
f 34/302/5 81/303/5 66/300/5 
f 36/304/5 81/303/5 34/302/5 
f 36/304/5 22/305/5 81/303/5 
f 64/71/5 22/305/5 36/304/5 
f 64/71/5 65/73/5 22/305/5 
f 27/72/5 64/71/5 25/306/5 
f 67/75/34 66/74/33 83/101/33 
f 68/76/35 69/77/36 55/307/28 
f 59/78/30 50/55/25 52/57/25 
f 32/59/27 70/80/37 54/60/27 
f 72/82/37 71/81/38 75/87/40 
f 56/83/30 48/53/25 31/308/30 
f 73/85/39 46/84/23 141/309/39 
f 75/87/40 73/85/39 141/309/39 
f 76/89/1 38/88/1 94/310/1 
f 78/92/41 77/91/7 34/38/8 
f 79/94/42 36/93/19 35/311/18 
f 64/95/17 80/96/16 25/28/12 
f 23/26/10 27/30/14 26/29/13 
f 24/99/11 81/98/43 22/312/9 
f 82/100/44 66/74/33 81/98/43 
f 57/64/31 19/22/6 58/65/31 
f 44/49/22 85/103/45 140/313/45 
f 87/105/46 21/24/8 20/23/7 
f 16/108/42 87/107/46 30/34/17 
f 89/110/47 17/32/15 139/250/15 
f 18/111/48 90/112/49 91/314/49 
f 85/103/45 90/113/49 140/313/45 
f 42/116/22 92/115/22 40/315/22 
f 94/119/3 93/118/3 76/316/3 
f 96/122/4 95/121/4 121/317/4 
f 98/125/22 11/124/22 100/318/22 
f 100/128/2 12/127/2 102/319/2 
f 101/131/50 10/130/50 114/320/50 
f 102/134/51 6/133/51 134/321/51 
f 108/322/2 1/138/2 3/323/2 
f 103/136/2 1/138/2 108/322/2 
f 10/137/2 103/136/2 114/324/2 
f 13/140/2 104/139/2 106/325/2 
f 105/143/22 15/142/22 137/326/22 
f 107/146/1 106/145/1 104/327/1 
f 108/149/52 2/148/52 135/328/52 
f 108/151/1 115/329/1 103/330/1 
f 108/151/1 110/153/1 115/329/1 
f 109/152/1 108/151/1 135/331/1 
f 113/332/4 105/333/4 137/334/4 
f 112/335/4 105/333/4 113/332/4 
f 110/336/4 105/333/4 112/335/4 
f 110/336/4 104/154/4 105/333/4 
f 109/155/4 104/154/4 110/336/4 
f 112/158/22 111/157/22 142/337/22 
f 142/338/3 103/339/3 115/340/3 
f 142/338/3 114/162/3 103/339/3 
f 100/341/3 111/342/3 98/343/3 
f 100/341/3 142/338/3 111/342/3 
f 100/341/3 114/162/3 142/338/3 
f 102/160/3 114/162/3 100/341/3 
f 101/161/3 102/160/3 134/344/3 
f 115/164/2 112/163/2 142/345/2 
f 117/167/22 116/166/22 136/346/22 
f 8/170/53 118/169/53 9/347/53 
f 7/173/2 118/172/2 116/348/2 
f 121/176/1 120/175/1 138/349/1 
f 95/179/2 122/178/2 120/350/2 
f 96/182/22 122/181/22 97/351/22 
f 116/352/3 131/353/3 136/354/3 
f 116/352/3 130/355/3 131/353/3 
f 116/352/3 125/186/3 130/355/3 
f 118/184/3 125/186/3 116/352/3 
f 124/185/3 118/184/3 119/356/3 
f 126/188/1 125/187/1 124/357/1 
f 120/358/4 126/359/4 138/360/4 
f 120/358/4 127/361/4 126/359/4 
f 120/358/4 129/192/4 127/361/4 
f 122/190/4 129/192/4 120/358/4 
f 128/191/4 122/190/4 123/362/4 
f 129/194/2 125/193/2 127/363/2 
f 131/197/22 129/196/22 128/364/22 
# 0 polygons - 280 triangles

